<svg version="1.2" xmlns="http://www.w3.org/2000/svg" viewBox="0 0 1050 600" width="1050" height="600">
	<title>New Project</title>
	<style>
		.s0 { fill: #ffffff;stroke: #000000;stroke-miterlimit:10;stroke-width: 5 } 
	</style>
	<g id="Layer 1">
		<g id="Folder 2">
			<path id="Shape 1" fill-rule="evenodd" class="s0" d="m179.7 389.5c-4.8 4.5-3-4-2.3-6.4 3.2-10.5 8-22.4 12-32.2 12.1-29.4 17.1-41.4 31.9-70.1 30.8-60.2 65-123.5 113.3-171.8 12.9-12.9 45-46.7 69.2-43.3 11.9 1.6 14.5 24.1 15.2 29.5 2.7 19.7 0.1 61.7-0.6 77.4-3.8 81.6-13.4 163.2-14.7 244.9"/>
			<path id="Shape 2" fill-rule="evenodd" class="s0" d="m214.7 202.8c-1 0 2 0 3 0 3.3 0.1 6.5 0.1 9.8 0.3 5.2 0.3 10.4 0.7 15.5 1.1 18.1 1.4 36.1 2.8 54.2 3.6 54.1 2.6 111 1.7 163.6 16.7 24.3 7 50.6 22.7 55.9 49.4 5.2 26.1-30 74.3-47.3 38.3-31.5-65.9 45.3-166.2 117.7-135.5 44.2 18.8 59.2 82.8 52 125.1-3.5 20.1-12.7 41.6-25.3 57.7-11.1 14-14.4 12.5-15.3 10.7-4-8.1 4.7-24.8 6.9-29.4 13.5-27.6 21.5-41.5 43.2-63.6 47.2-48.2 104.3-78.4 171.1-89.9 23.5-4 63.9-10.8 85 8.1 17 15.2-14.1 41.7-22.8 48.5-41 31.9-90 55.3-136.9 76.7-117.5 53.4-245.4 87.5-375.2 80.9-54.9-2.8-114.2-17.1-160.9-47-11.9-7.6-31.6-24.2-15-38.4 15.1-13 35.7-19.5 54.5-24.2 63.8-15.6 126.7-16.3 192.1-15.8 58.9 0.3 117.8 4.4 176.7 5 78.4 0.8 156.5-5.5 234.5-10.6"/>
			<path id="Shape 3" fill-rule="evenodd" class="s0" d=""/>
		</g>
	</g>
</svg>